<?xml version="1.0" encoding="UTF-8"?><svg id="Layer_1" xmlns="http://www.w3.org/2000/svg" viewBox="0 0 237 44.54"><defs><style>.cls-1{fill:#fff;}.cls-2{letter-spacing:-.03em;}.cls-2,.cls-3,.cls-4,.cls-5,.cls-6,.cls-7,.cls-8,.cls-9,.cls-10,.cls-11,.cls-12,.cls-13,.cls-14,.cls-15,.cls-16{font-size:10px;}.cls-2,.cls-3,.cls-5,.cls-6,.cls-9,.cls-13,.cls-15,.cls-17{fill:#365495;}.cls-18{font-size:8.29px;}.cls-18,.cls-4,.cls-12{fill:#231f20;}.cls-3{letter-spacing:-.02em;}.cls-4,.cls-7{letter-spacing:0em;}.cls-5{letter-spacing:0em;}.cls-6{letter-spacing:0em;}.cls-7,.cls-8,.cls-10,.cls-11,.cls-14,.cls-19,.cls-16{fill:#d83764;}.cls-8{letter-spacing:-.01em;}.cls-20{font-family:SourceSerifPro-Semibold, 'Source Serif Pro';font-weight:600;}.cls-10{letter-spacing:-.02em;}.cls-13{letter-spacing:-.08em;}.cls-14{letter-spacing:0em;}.cls-15{letter-spacing:-.01em;}.cls-16{letter-spacing:0em;}</style></defs><ellipse class="cls-17" cx="22.42" cy="22.11" rx="22.42" ry="22.11"/><path class="cls-1" d="m39.45,19.51c-1.22-2.46-2.53-4.82-3.75-7-.26-.46-.75-.75-1.27-.75h-.01c-.57,0-1.08.35-1.29.87-.57,1.37-1.19,2.78-1.85,4.27-.68-1.43-1.37-2.84-2.07-4.26-.27-.54-.83-.85-1.42-.8-.59.05-1.1.48-1.25,1.06-.88,3.31-1.85,6.62-2.81,9.88-1.05-1.96-2.09-3.93-3.13-5.9-.26-.51-.76-.79-1.34-.79-.53.03-1.01.35-1.24.85-.91,1.91-1.82,3.82-2.72,5.73-.82-1.94-1.57-3.76-2.27-5.51-.21-.54-.69-.89-1.25-.92-.53-.05-1.04.24-1.33.71-1.62,2.66-3.34,5.48-4.98,8.33-.36.63-.21,1.47.35,1.94.33.28.77.4,1.19.33.42-.07.78-.33.99-.7,1.02-1.79,2.12-3.67,3.42-5.83.77,1.84,1.6,3.79,2.52,5.89.23.52.71.87,1.26.9.58.04,1.14-.3,1.39-.86.96-2.12,1.94-4.21,2.81-6.04.72,1.36,1.45,2.71,2.17,4.07l1.15,2.15c.25.48.74.78,1.26.78h.01s.05-.01.08-.01h.08s.03.01.03.01c.62-.02,1.16-.44,1.34-1.05l.13-.43c.89-2.97,1.8-6.02,2.67-9.08.57,1.2,1.14,2.39,1.69,3.6.24.53.76.87,1.35.83.54-.02,1.02-.34,1.26-.84.73-1.58,1.4-3.05,2.02-4.45.82,1.53,1.57,2.96,2.26,4.34.18.35.5.62.88.73.38.11.81.05,1.15-.16.64-.4.88-1.22.55-1.88Z"/><ellipse class="cls-19" cx="24.37" cy="30.89" rx="1.6" ry="1.57"/><path class="cls-17" d="m67.33,14.47c.11.2.17.37.19.53.02.16.03.39.03.69v10.88c0,.9-.25,1.43-.76,1.59-.25.08-.57.12-.95.12s-.69-.03-.91-.1c-.23-.07-.4-.14-.52-.24-.12-.09-.21-.22-.28-.39-.07-.22-.1-.56-.1-1.02v-6.57c-.33.41-.81,1.05-1.45,1.93-.64.88-1.04,1.43-1.21,1.66-.17.22-.29.38-.36.46-.07.09-.23.2-.49.35-.26.15-.54.23-.83.23s-.57-.07-.81-.21c-.25-.14-.42-.27-.53-.4l-.16-.22c-.27-.33-.79-1.02-1.57-2.09-.78-1.06-1.21-1.64-1.27-1.71v6.6c0,.3-.01.53-.03.68-.02.15-.08.32-.19.5-.2.35-.72.53-1.55.53s-1.31-.18-1.51-.53c-.11-.18-.17-.35-.19-.51-.02-.16-.03-.39-.03-.71v-10.88c0-.3.01-.53.03-.68.02-.15.08-.32.19-.52.2-.34.72-.51,1.55-.51.36,0,.67.04.92.13.26.09.43.17.51.26l.12.12,4.51,5.84c2.25-2.94,3.76-4.88,4.51-5.82.23-.35.76-.53,1.6-.53s1.35.18,1.54.53Z"/><path class="cls-17" d="m80.71,14.2c.65.44.97.88.97,1.29,0,.25-.15.59-.46,1.04l-4.29,6.33v3.74c0,.3-.01.53-.03.68-.02.15-.08.32-.19.52-.11.2-.29.33-.54.41-.25.08-.59.12-1.01.12s-.76-.04-1.01-.12c-.25-.08-.43-.22-.54-.42-.11-.2-.17-.38-.19-.53-.02-.15-.03-.38-.03-.7v-3.7l-4.29-6.33c-.31-.44-.46-.79-.46-1.04,0-.42.29-.82.87-1.2.58-.39,1-.58,1.25-.58s.45.05.6.16c.23.14.46.41.72.8l3.08,4.86,3.08-4.86c.25-.39.47-.65.66-.77.19-.12.4-.19.65-.19s.63.16,1.16.49Z"/><path class="cls-19" d="m87.8,15.65c0-.3.01-.53.03-.68.02-.15.08-.32.19-.52.19-.35.7-.53,1.55-.53.93,0,1.48.24,1.65.72.07.22.1.56.1,1.02v10.9c0,.31-.01.54-.03.69-.02.14-.08.31-.19.51-.19.35-.7.53-1.55.53-.93,0-1.47-.25-1.63-.74-.08-.21-.12-.54-.12-1v-10.9Z"/><path class="cls-19" d="m108.39,14.47c.11.2.17.37.19.53.02.16.03.39.03.69v10.88c0,.9-.25,1.43-.76,1.59-.25.08-.57.12-.95.12s-.69-.03-.91-.1c-.23-.07-.4-.14-.52-.24-.12-.09-.21-.22-.28-.39-.07-.22-.1-.56-.1-1.02v-6.57c-.33.41-.81,1.05-1.45,1.93-.64.88-1.04,1.43-1.21,1.66-.17.22-.29.38-.36.46-.07.09-.23.2-.49.35-.26.15-.54.23-.83.23s-.57-.07-.81-.21c-.25-.14-.42-.27-.53-.4l-.16-.22c-.27-.33-.79-1.02-1.57-2.09-.78-1.06-1.21-1.64-1.27-1.71v6.6c0,.3-.01.53-.03.68-.02.15-.08.32-.19.5-.2.35-.72.53-1.55.53s-1.31-.18-1.51-.53c-.11-.18-.17-.35-.19-.51-.02-.16-.03-.39-.03-.71v-10.88c0-.3.01-.53.03-.68.02-.15.08-.32.19-.52.2-.34.72-.51,1.55-.51.36,0,.67.04.92.13.26.09.43.17.51.26l.12.12,4.51,5.84c2.25-2.94,3.76-4.88,4.51-5.82.23-.35.76-.53,1.6-.53s1.35.18,1.54.53Z"/><path class="cls-19" d="m120.95,16.82c.34.69.52,1.46.52,2.31s-.17,1.62-.52,2.3c-.34.69-.79,1.23-1.33,1.64-1.1.84-2.24,1.25-3.42,1.25h-2.48v2.21c0,.3-.01.53-.03.68-.02.15-.08.32-.19.52-.19.35-.7.53-1.55.53-.93,0-1.47-.24-1.63-.73-.08-.22-.12-.56-.12-1.02v-10.88c0-.3.01-.53.03-.68.02-.15.08-.32.19-.52.19-.35.7-.53,1.55-.53h4.25c1.17,0,2.3.42,3.4,1.25.54.41.99.95,1.33,1.65Zm-3.56,3.61c.38-.29.58-.72.58-1.29s-.19-1.01-.58-1.3c-.38-.29-.78-.44-1.19-.44h-2.48v3.47h2.5c.4,0,.79-.14,1.17-.43Z"/><path class="cls-19" d="m129.52,14.94l5.37,10.94c.23.44.34.78.34,1,0,.47-.38.9-1.15,1.27-.45.22-.8.33-1.06.33s-.47-.06-.64-.18c-.17-.12-.29-.24-.36-.37-.07-.13-.18-.33-.31-.59l-1.03-2.12h-5.51l-1.03,2.12c-.13.26-.24.45-.31.57-.07.12-.19.24-.36.36-.17.12-.38.19-.64.19s-.61-.11-1.06-.33c-.77-.37-1.15-.78-1.15-1.25,0-.22.11-.56.34-1l5.37-10.95c.15-.3.37-.54.67-.73.3-.18.61-.27.94-.27.72,0,1.25.34,1.59,1.02Zm-1.61,4.7l-1.31,2.69h2.64l-1.33-2.69Z"/><path class="cls-19" d="m144.42,24.52l.36-.25c.45-.26.77-.39.95-.39.41,0,.85.37,1.33,1.1.29.46.44.82.44,1.1s-.09.5-.27.69-.39.35-.63.49c-.24.14-.47.28-.69.41s-.67.3-1.34.51c-.68.21-1.33.31-1.96.31s-1.27-.08-1.91-.24c-.64-.16-1.31-.44-1.99-.82-.68-.39-1.3-.86-1.84-1.41-.54-.56-.99-1.27-1.34-2.14-.35-.87-.53-1.81-.53-2.83s.17-1.94.52-2.77c.34-.83.79-1.52,1.32-2.06.54-.54,1.15-1,1.84-1.36,1.3-.71,2.6-1.06,3.92-1.06.62,0,1.26.1,1.9.28.64.19,1.13.38,1.46.58l.48.27c.24.14.42.26.56.35.34.27.52.58.52.93s-.14.71-.42,1.09c-.52.71-.98,1.06-1.39,1.06-.24,0-.58-.14-1.01-.43-.56-.44-1.3-.67-2.23-.67-.86,0-1.71.29-2.54.88-.4.29-.73.69-.99,1.22-.27.52-.4,1.11-.4,1.77s.13,1.25.4,1.77c.26.52.6.93,1.01,1.23.81.58,1.65.86,2.52.86.41,0,.8-.05,1.16-.16.36-.1.63-.21.79-.31Z"/><path class="cls-19" d="m149.77,13.9h11.05c.42,0,.74.05.93.15.2.1.33.25.4.46.07.21.1.48.1.82s-.03.61-.1.81c-.07.2-.18.34-.34.42-.24.12-.58.18-1.01.18h-3.8v9.86c0,.3,0,.52-.03.67s-.08.31-.18.5c-.1.19-.28.32-.53.4-.25.08-.58.12-.99.12s-.74-.04-.98-.12c-.25-.08-.42-.21-.52-.4-.1-.19-.16-.36-.18-.51-.02-.15-.03-.38-.03-.68v-9.84h-3.82c-.42,0-.74-.05-.93-.15-.2-.1-.33-.25-.4-.46-.07-.21-.1-.48-.1-.82s.03-.61.1-.81c.07-.2.18-.34.34-.42.24-.12.58-.18,1.01-.18Z"/><path class="cls-17" d="m183.86,14.47c.11.2.17.37.19.53.02.16.03.39.03.69v10.88c0,.9-.25,1.43-.76,1.59-.25.08-.57.12-.95.12s-.69-.03-.91-.1c-.23-.07-.4-.14-.52-.24-.12-.09-.21-.22-.28-.39-.07-.22-.1-.56-.1-1.02v-6.57c-.33.41-.81,1.05-1.45,1.93-.64.88-1.04,1.43-1.21,1.66-.17.22-.29.38-.36.46-.07.09-.23.2-.49.35-.26.15-.54.23-.83.23s-.57-.07-.81-.21c-.25-.14-.42-.27-.53-.4l-.16-.22c-.27-.33-.79-1.02-1.57-2.09-.78-1.06-1.21-1.64-1.27-1.71v6.6c0,.3-.01.53-.03.68-.02.15-.08.32-.19.5-.2.35-.72.53-1.55.53s-1.31-.18-1.51-.53c-.11-.18-.17-.35-.19-.51-.02-.16-.03-.39-.03-.71v-10.88c0-.3.01-.53.03-.68.02-.15.08-.32.19-.52.2-.34.72-.51,1.55-.51.36,0,.67.04.92.13.26.09.43.17.51.26l.12.12,4.51,5.84c2.25-2.94,3.76-4.88,4.51-5.82.23-.35.76-.53,1.6-.53s1.35.18,1.54.53Z"/><path class="cls-17" d="m189.18,24.82h6.12c.3,0,.53,0,.69.03s.33.08.53.19c.36.18.54.69.54,1.53,0,.91-.25,1.45-.74,1.61-.23.08-.57.12-1.03.12h-7.87c-.93,0-1.47-.25-1.63-.74-.08-.21-.12-.54-.12-1v-10.9c0-.67.13-1.12.38-1.36.25-.24.73-.36,1.43-.36h7.83c.3,0,.53,0,.69.03.15.02.33.08.53.19.36.18.54.69.54,1.53,0,.92-.25,1.45-.74,1.61-.23.08-.57.12-1.03.12h-6.1v1.98h3.94c.3,0,.53,0,.69.03.15.02.33.08.53.19.36.18.54.69.54,1.53,0,.91-.25,1.45-.76,1.61-.23.08-.57.12-1.03.12h-3.9v1.98Z"/><path class="cls-17" d="m199.3,13.9h11.05c.42,0,.74.05.93.15.2.1.33.25.4.46.07.21.1.48.1.82s-.03.61-.1.81c-.07.2-.18.34-.34.42-.24.12-.58.18-1.01.18h-3.8v9.86c0,.3,0,.52-.03.67s-.08.31-.18.5c-.1.19-.28.32-.53.4-.25.08-.58.12-.99.12s-.74-.04-.98-.12c-.25-.08-.42-.21-.52-.4-.1-.19-.16-.36-.18-.51-.02-.15-.03-.38-.03-.68v-9.84h-3.82c-.42,0-.74-.05-.93-.15-.2-.1-.33-.25-.4-.46-.07-.21-.1-.48-.1-.82s.03-.61.1-.81c.07-.2.18-.34.34-.42.24-.12.58-.18,1.01-.18Z"/><path class="cls-17" d="m216.39,24.82h6.12c.3,0,.53,0,.69.03s.33.08.53.19c.36.18.54.69.54,1.53,0,.91-.25,1.45-.74,1.61-.23.08-.57.12-1.03.12h-7.87c-.93,0-1.47-.25-1.63-.74-.08-.21-.12-.54-.12-1v-10.9c0-.67.13-1.12.38-1.36.25-.24.73-.36,1.43-.36h7.83c.3,0,.53,0,.69.03.15.02.33.08.53.19.36.18.54.69.54,1.53,0,.92-.25,1.45-.74,1.61-.23.08-.57.12-1.03.12h-6.1v1.98h3.94c.3,0,.53,0,.69.03.15.02.33.08.53.19.36.18.54.69.54,1.53,0,.91-.25,1.45-.76,1.61-.23.08-.57.12-1.03.12h-3.9v1.98Z"/><path class="cls-17" d="m236.7,25.86c.2.47.3.81.3,1.02,0,.5-.41.91-1.23,1.25-.42.18-.77.27-1.02.27s-.47-.06-.64-.19c-.17-.12-.29-.25-.37-.38-.13-.25-.65-1.43-1.55-3.55l-.62.04h-2.5v2.21c0,.3-.01.53-.03.68-.02.15-.08.32-.19.52-.19.35-.7.53-1.55.53-.93,0-1.47-.24-1.63-.73-.08-.22-.12-.56-.12-1.02v-10.88c0-.3.01-.53.03-.68.02-.15.08-.32.19-.52.19-.35.7-.53,1.55-.53h4.29c1.17,0,2.3.42,3.4,1.25.53.41.97.95,1.31,1.65.34.69.52,1.46.52,2.31,0,1.48-.5,2.69-1.49,3.65.29.69.74,1.72,1.35,3.08Zm-7.63-5h2.54c.38,0,.77-.14,1.15-.43.38-.29.58-.72.58-1.29s-.19-1.01-.58-1.3c-.38-.29-.78-.44-1.19-.44h-2.5v3.47Z"/><text class="cls-20" transform="translate(51.85 41.25) scale(1.01 1)"><tspan class="cls-11" x="0" y="0">C</tspan><tspan class="cls-14" x="6.27" y="0">h</tspan><tspan class="cls-16" x="12.32" y="0">a</tspan><tspan class="cls-7" x="17.49" y="0">n</tspan><tspan class="cls-8" x="23.6" y="0">g</tspan><tspan class="cls-7" x="28.76" y="0">e</tspan><tspan class="cls-12" x="33.91" y="0"> </tspan><tspan class="cls-9" x="36.15" y="0">the</tspan><tspan class="cls-2" x="50.8" y="0"> </tspan><tspan class="cls-13" x="52.78" y="0">W</tspan><tspan class="cls-6" x="61.72" y="0">o</tspan><tspan class="cls-3" x="67.29" y="0">r</tspan><tspan class="cls-9" x="71.55" y="0">ld</tspan><tspan class="cls-4" x="80.45" y="0"> </tspan><tspan class="cls-11" x="82.69" y="0">One Cli</tspan><tspan class="cls-10" x="115.67" y="0">c</tspan><tspan class="cls-11" x="120.5" y="0">k</tspan><tspan class="cls-18" x="126.22" y="0"> </tspan><tspan class="cls-9" x="128.08" y="0">at a</tspan><tspan class="cls-15" x="144.12" y="0"> </tspan><tspan class="cls-5" x="146.24" y="0">T</tspan><tspan class="cls-9" x="152.35" y="0">ime</tspan></text></svg>